<svg width="44" height="24" viewBox="0 0 44 24" fill="none" xmlns="http://www.w3.org/2000/svg">
<path d="M43.9999 13.372V13.072C43.9359 10.951 43.7999 5.98801 39.1489 4.40201L39.0399 4.36801C35.8769 3.49801 32.8726 2.12987 30.1399 0.31501C29.9846 0.200876 29.8081 0.118921 29.6207 0.0739512C29.4332 0.0289813 29.2387 0.0219048 29.0485 0.0531382C28.8584 0.0843716 28.6763 0.153281 28.5131 0.255828C28.35 0.358376 28.2089 0.492496 28.0982 0.650306C27.9876 0.808116 27.9096 0.986442 27.8688 1.17481C27.828 1.36318 27.8253 1.5578 27.8607 1.74725C27.8962 1.93669 27.9692 2.11714 28.0753 2.27801C28.1815 2.43887 28.3187 2.57691 28.4789 2.68401C31.4726 4.6922 34.7721 6.20178 38.2489 7.15401C40.7439 8.04501 41.0219 10.711 41.0969 13.17C41.0914 13.2589 41.0914 13.3481 41.0969 13.437C41.1163 14.5454 41.0411 15.6534 40.8719 16.749C39.1619 17.723 32.3569 21.133 22.0089 21.133C11.6609 21.133 4.85393 17.71 3.11093 16.725C2.93648 15.63 2.86117 14.5215 2.88593 13.413V13.146C2.96093 10.702 3.23893 8.03301 5.73393 7.13001C9.20889 6.17265 12.5076 4.66343 15.5039 2.66001C15.6642 2.55291 15.8014 2.41487 15.9075 2.254C16.0137 2.09314 16.0866 1.91269 16.1221 1.72324C16.1576 1.5338 16.1548 1.33918 16.114 1.15081C16.0733 0.962439 15.9953 0.784114 15.8846 0.626304C15.774 0.468494 15.6329 0.334382 15.4697 0.231834C15.3065 0.129286 15.1245 0.0603695 14.9343 0.0291361C14.7441 -0.00209728 14.5496 0.0049792 14.3622 0.0499491C14.1748 0.094919 13.9982 0.176873 13.8429 0.291007C11.1236 2.11173 8.12945 3.48388 4.97493 4.35501L4.86593 4.38901C0.217927 5.98701 0.0789271 10.946 -7.28583e-05 13.059C0.00544333 13.1479 0.00544333 13.2371 -7.28583e-05 13.326V13.36C-0.0556436 14.9959 0.12796 16.6312 0.544927 18.214C0.655372 18.4893 0.851795 18.7215 1.10493 18.876C1.42793 19.09 9.12693 24.001 22.0159 24.001C34.9049 24.001 42.5999 19.079 42.9259 18.876C43.1766 18.7148 43.3709 18.4796 43.4819 18.203C43.8848 16.6257 44.0592 14.9988 43.9999 13.372Z" fill="black"/>
</svg>
