<svg width="8" height="17" viewBox="0 0 8 17" fill="none" xmlns="http://www.w3.org/2000/svg">
<path d="M7.08811 8.47986H4.90211V16.2379H1.59111V8.47986H0.0161133V5.75386H1.59111V3.98886C1.56186 3.5472 1.62909 3.10446 1.78814 2.69139C1.94719 2.27831 2.19423 1.90481 2.51213 1.59681C2.83003 1.2888 3.21116 1.05368 3.62905 0.907776C4.04695 0.761867 4.49159 0.708666 4.93211 0.751865L7.38511 0.761866V3.40886H5.60511C5.50788 3.40287 5.41051 3.41834 5.31993 3.45419C5.22934 3.49003 5.14775 3.54537 5.08095 3.61628C5.01415 3.68719 4.96376 3.77193 4.93337 3.86449C4.90299 3.95705 4.89334 4.05516 4.90511 4.15187V5.75187H7.38011L7.08811 8.47986Z" fill="white"/>
</svg>
