<svg width="15" height="13" viewBox="0 0 15 13" fill="none" xmlns="http://www.w3.org/2000/svg">
<path d="M14.9971 2.07207C14.4728 2.30444 13.9166 2.45681 13.3471 2.52407C13.947 2.16523 14.3959 1.60046 14.6101 0.935069C14.0465 1.27074 13.4295 1.50749 12.7861 1.63507C12.3525 1.17799 11.7807 0.876009 11.1587 0.775554C10.5367 0.675098 9.89899 0.781733 9.34353 1.07906C8.78807 1.37639 8.34565 1.84795 8.08431 2.42123C7.82298 2.99451 7.75719 3.63776 7.89707 4.25207C6.75511 4.19509 5.6379 3.89855 4.618 3.38171C3.5981 2.86486 2.69831 2.13928 1.97707 1.25207C1.60966 1.88446 1.49707 2.63311 1.66223 3.3456C1.8274 4.05808 2.25789 4.68083 2.86607 5.08707C2.41018 5.07275 1.96438 4.94929 1.56607 4.72707C1.56607 4.73907 1.56607 4.75107 1.56607 4.76307C1.56609 5.42564 1.79504 6.06785 2.21417 6.581C2.63329 7.09416 3.21685 7.44674 3.86607 7.57907C3.44221 7.69457 2.99755 7.71167 2.56607 7.62907C2.74946 8.19982 3.10668 8.69897 3.58775 9.05668C4.06882 9.41439 4.64968 9.61277 5.24907 9.62407C4.04376 10.5651 2.51559 10.9921 0.99707 10.8121C2.23161 11.6032 3.65634 12.0474 5.12173 12.0981C6.58713 12.1488 8.03915 11.8041 9.32539 11.1001C10.6116 10.3962 11.6847 9.359 12.4319 8.0974C13.1791 6.83581 13.5729 5.39634 13.5721 3.93007C13.5721 3.80607 13.5721 3.68207 13.5641 3.55907C14.1265 3.15272 14.6118 2.64914 14.9971 2.07207Z" fill="#F1F2F2"/>
</svg>
