<svg width="22" height="29" viewBox="0 0 22 29" fill="none" xmlns="http://www.w3.org/2000/svg">
<path d="M10.819 28H11.17C12.5726 28.0269 13.9642 27.747 15.2473 27.1797C16.5304 26.6125 17.674 25.7716 18.598 24.716C22.663 20.047 21.979 12.041 21.924 11.275C21.624 5.54099 18.975 2.79699 16.784 1.50999C15.056 0.52578 13.1026 0.00557808 11.114 -1.22914e-05H10.937C8.94809 -0.00579282 6.99146 0.502654 5.25699 1.47599C3.03999 2.75599 0.349995 5.49999 0.0839947 11.29C0.00999468 12.045 -0.655007 20.058 3.40999 24.731C4.33425 25.7803 5.47556 26.6161 6.75487 27.1806C8.03418 27.745 9.42091 28.0246 10.819 28ZM2.90699 11.546V11.46C3.26499 3.74499 8.627 2.91799 10.926 2.91799H11.052C13.897 2.98199 18.731 4.16699 19.06 11.464C19.0541 11.4927 19.0541 11.5223 19.06 11.551C19.06 11.626 19.799 18.945 16.473 22.796C15.7926 23.5536 14.954 24.1524 14.0165 24.5499C13.079 24.9473 12.0656 25.1338 11.048 25.096H10.941C9.92406 25.1415 8.90985 24.9585 7.97294 24.5605C7.03603 24.1625 6.20023 23.5595 5.52699 22.796C2.17899 18.96 2.89599 11.611 2.90699 11.546Z" fill="black"/>
</svg>
